G04*
G04 #@! TF.GenerationSoftware,Altium Limited,Altium Designer,24.1.2 (44)*
G04*
G04 Layer_Color=8388736*
%FSLAX44Y44*%
%MOMM*%
G71*
G04*
G04 #@! TF.SameCoordinates,E9BD1FF1-B1AA-42C1-8D7E-3D4E88507192*
G04*
G04*
G04 #@! TF.FilePolarity,Positive*
G04*
G01*
G75*
%ADD11C,0.2000*%
D11*
X867150Y1586510D02*
Y1677510D01*
X898150D01*
Y1586510D02*
Y1677510D01*
X867150Y1586510D02*
X898150D01*
X719100Y1715510D02*
X810100D01*
X719100D02*
Y1746510D01*
X810100D01*
Y1715510D02*
Y1746510D01*
X883700Y1805680D02*
Y1836680D01*
X792700D02*
X883700D01*
X792700Y1805680D02*
Y1836680D01*
Y1805680D02*
X883700D01*
X392650Y1686300D02*
Y1717300D01*
Y1686300D02*
X483650D01*
Y1717300D01*
X392650D02*
X483650D01*
X392650Y1611370D02*
Y1642370D01*
Y1611370D02*
X483650D01*
Y1642370D01*
X392650D02*
X483650D01*
X392650Y1648200D02*
Y1679200D01*
Y1648200D02*
X483650D01*
Y1679200D01*
X392650D02*
X483650D01*
X946370Y1832350D02*
Y1863350D01*
Y1832350D02*
X1037370D01*
Y1863350D01*
X946370D02*
X1037370D01*
X1036060Y1656300D02*
X1067060D01*
Y1747300D01*
X1036060D02*
X1067060D01*
X1036060Y1656300D02*
Y1747300D01*
X563620Y1592740D02*
X594620D01*
Y1683740D01*
X563620D02*
X594620D01*
X563620Y1592740D02*
Y1683740D01*
X996690Y1656360D02*
X1027690D01*
Y1747360D01*
X996690D02*
X1027690D01*
X996690Y1656360D02*
Y1747360D01*
X958590Y1672370D02*
X989590D01*
X958590Y1581370D02*
Y1672370D01*
Y1581370D02*
X989590D01*
Y1672370D01*
X780830Y1475480D02*
Y1506480D01*
X689830D02*
X780830D01*
X689830Y1475480D02*
Y1506480D01*
Y1475480D02*
X780830D01*
X779560Y1513580D02*
Y1544580D01*
X688560D02*
X779560D01*
X688560Y1513580D02*
Y1544580D01*
Y1513580D02*
X779560D01*
X688620Y1432300D02*
Y1463300D01*
Y1432300D02*
X779620D01*
Y1463300D01*
X688620D02*
X779620D01*
X689890Y1390390D02*
Y1421390D01*
Y1390390D02*
X780890D01*
Y1421390D01*
X689890D02*
X780890D01*
X698280Y1583400D02*
X747780D01*
X762400D01*
X683660D02*
X698280D01*
X762400Y1555920D02*
Y1583400D01*
X683660Y1555920D02*
X762400D01*
X683660D02*
Y1583400D01*
X525350Y1810040D02*
Y1867540D01*
X426350D02*
X525350D01*
X426350Y1810040D02*
Y1867540D01*
Y1810040D02*
X525350D01*
X322360Y1723590D02*
Y1748590D01*
Y1723590D02*
X358360D01*
Y1748590D01*
X322360D02*
X358360D01*
X897490Y1757960D02*
Y1792960D01*
X847490D02*
X897490D01*
X847490Y1757960D02*
Y1792960D01*
Y1757960D02*
X897490D01*
X822960Y1850390D02*
Y1953260D01*
X650240Y1850390D02*
X822960D01*
X650240D02*
Y1953260D01*
X822960D01*
X524480Y1891490D02*
Y1948990D01*
X425480D02*
X524480D01*
X425480Y1891490D02*
Y1948990D01*
Y1891490D02*
X524480D01*
X1040892Y1852930D02*
Y1955800D01*
X868172Y1852930D02*
X1040892D01*
X868172D02*
Y1955800D01*
X1040892D01*
M02*
