G04*
G04 #@! TF.GenerationSoftware,Altium Limited,Altium Designer,24.1.2 (44)*
G04*
G04 Layer_Color=32768*
%FSLAX44Y44*%
%MOMM*%
G71*
G04*
G04 #@! TF.SameCoordinates,E9BD1FF1-B1AA-42C1-8D7E-3D4E88507192*
G04*
G04*
G04 #@! TF.FilePolarity,Positive*
G04*
G01*
G75*
%ADD11C,0.2000*%
D11*
X866150Y1564110D02*
Y1699910D01*
X899150D01*
Y1564110D02*
Y1699910D01*
X866150Y1564110D02*
X899150D01*
X696700Y1714510D02*
X832500D01*
X696700D02*
Y1747510D01*
X832500D01*
Y1714510D02*
Y1747510D01*
X906100Y1804680D02*
Y1837680D01*
X770300D02*
X906100D01*
X770300Y1804680D02*
Y1837680D01*
Y1804680D02*
X906100D01*
X370250Y1685300D02*
Y1718300D01*
Y1685300D02*
X506050D01*
Y1718300D01*
X370250D02*
X506050D01*
X370250Y1610370D02*
Y1643370D01*
Y1610370D02*
X506050D01*
Y1643370D01*
X370250D02*
X506050D01*
X370250Y1647200D02*
Y1680200D01*
Y1647200D02*
X506050D01*
Y1680200D01*
X370250D02*
X506050D01*
X923970Y1831350D02*
Y1864350D01*
Y1831350D02*
X1059770D01*
Y1864350D01*
X923970D02*
X1059770D01*
X1035060Y1633900D02*
X1068060D01*
Y1769700D01*
X1035060D02*
X1068060D01*
X1035060Y1633900D02*
Y1769700D01*
X562620Y1570340D02*
X595620D01*
Y1706140D01*
X562620D02*
X595620D01*
X562620Y1570340D02*
Y1706140D01*
X995690Y1633960D02*
X1028690D01*
Y1769760D01*
X995690D02*
X1028690D01*
X995690Y1633960D02*
Y1769760D01*
X957590Y1694770D02*
X990590D01*
X957590Y1558970D02*
Y1694770D01*
Y1558970D02*
X990590D01*
Y1694770D01*
X803230Y1474480D02*
Y1507480D01*
X667430D02*
X803230D01*
X667430Y1474480D02*
Y1507480D01*
Y1474480D02*
X803230D01*
X801960Y1512580D02*
Y1545580D01*
X666160D02*
X801960D01*
X666160Y1512580D02*
Y1545580D01*
Y1512580D02*
X801960D01*
X666220Y1431300D02*
Y1464300D01*
Y1431300D02*
X802020D01*
Y1464300D01*
X666220D02*
X802020D01*
X667490Y1389390D02*
Y1422390D01*
Y1389390D02*
X803290D01*
Y1422390D01*
X667490D02*
X803290D01*
X682390Y1584400D02*
X697780D01*
X682390Y1554650D02*
Y1584400D01*
X748280D02*
X762400D01*
X697780D02*
X748280D01*
X762400Y1554650D02*
Y1584400D01*
X682390Y1554650D02*
X762400D01*
X526350Y1809040D02*
Y1868540D01*
X425350D02*
X526350D01*
X425350Y1809040D02*
Y1868540D01*
Y1809040D02*
X526350D01*
X320860Y1722590D02*
Y1749590D01*
Y1722590D02*
X359860D01*
Y1749590D01*
X320860D02*
X359860D01*
X904990Y1756960D02*
Y1793960D01*
X839990D02*
X904990D01*
X839990Y1756960D02*
Y1793960D01*
Y1756960D02*
X904990D01*
X822960Y1850390D02*
Y1953260D01*
X650240Y1850390D02*
X822960D01*
X650240D02*
Y1953260D01*
X822960D01*
X525480Y1890490D02*
Y1949990D01*
X424480D02*
X525480D01*
X424480Y1890490D02*
Y1949990D01*
Y1890490D02*
X525480D01*
X1040892Y1852930D02*
Y1955800D01*
X868172Y1852930D02*
X1040892D01*
X868172D02*
Y1955800D01*
X1040892D01*
M02*
