G04*
G04 #@! TF.GenerationSoftware,Altium Limited,Altium Designer,24.1.2 (44)*
G04*
G04 Layer_Color=16711935*
%FSLAX44Y44*%
%MOMM*%
G71*
G04*
G04 #@! TF.SameCoordinates,E9BD1FF1-B1AA-42C1-8D7E-3D4E88507192*
G04*
G04*
G04 #@! TF.FilePolarity,Positive*
G04*
G01*
G75*
%ADD11C,0.2000*%
%ADD12C,0.1270*%
%ADD15C,0.1000*%
%ADD69C,0.3048*%
D11*
X559920Y1541780D02*
G03*
X559920Y1541780I-1000J0D01*
G01*
X684890Y1703080D02*
G03*
X684890Y1703080I-1000J0D01*
G01*
X277280Y1467850D02*
G03*
X277280Y1467850I-1000J0D01*
G01*
X509150Y1747520D02*
G03*
X509150Y1747520I-1000J0D01*
G01*
X393610Y1827530D02*
G03*
X393610Y1827530I-1000J0D01*
G01*
D12*
X577520Y1551630D02*
X641020D01*
X577520Y1455730D02*
X641020D01*
X577520D02*
Y1551630D01*
X641020Y1455730D02*
Y1551630D01*
X584200Y1758950D02*
Y1891030D01*
Y1758950D02*
X712470D01*
Y1891030D01*
X584200D02*
X712470D01*
X609590Y1592580D02*
Y1719580D01*
X678190D01*
Y1592580D02*
Y1719580D01*
X609590Y1592580D02*
X678190D01*
X264280Y1475350D02*
Y1500350D01*
Y1560350D01*
Y1590350D01*
X406280D01*
Y1475350D02*
Y1590350D01*
X264280Y1475350D02*
X406280D01*
X426750Y1781520D02*
X500750D01*
X426750Y1724020D02*
Y1781520D01*
Y1724020D02*
X500750D01*
Y1781520D01*
D15*
X866090Y1850390D02*
G03*
X866090Y1850390I-19000J0D01*
G01*
X862590D02*
G03*
X862590Y1850390I-15500J0D01*
G01*
X866090Y1921510D02*
G03*
X866090Y1921510I-19000J0D01*
G01*
X862590D02*
G03*
X862590Y1921510I-15500J0D01*
G01*
X566020Y1739900D02*
G03*
X566020Y1739900I-25000J0D01*
G01*
X769190Y1790690D02*
G03*
X769190Y1790690I-25000J0D01*
G01*
X909080Y1728470D02*
G03*
X909080Y1728470I-25000J0D01*
G01*
X901460Y1537970D02*
G03*
X901460Y1537970I-25000J0D01*
G01*
X898760Y1483360D02*
G03*
X898760Y1483360I-25000J0D01*
G01*
X701380Y1592950D02*
Y1670950D01*
X731380Y1592950D02*
Y1670950D01*
X701380D02*
X731380D01*
X701380Y1592950D02*
X731380D01*
X718880D02*
Y1670950D01*
X763610Y1592990D02*
Y1670990D01*
X793610Y1592990D02*
Y1670990D01*
X763610D02*
X793610D01*
X763610Y1592990D02*
X793610D01*
X781110D02*
Y1670990D01*
X854370Y1594220D02*
Y1672220D01*
X824370Y1594220D02*
Y1672220D01*
Y1594220D02*
X854370D01*
X824370Y1672220D02*
X854370D01*
X836870Y1594220D02*
Y1672220D01*
X936050Y1591680D02*
Y1669680D01*
X918550Y1591680D02*
X948550D01*
X918550Y1669680D02*
X948550D01*
Y1591680D02*
Y1669680D01*
X918550Y1591680D02*
Y1669680D01*
X877910Y1420220D02*
X920410D01*
X877910Y1401720D02*
Y1420220D01*
X920410Y1401720D02*
Y1420220D01*
X877910Y1401720D02*
X920410D01*
X877910Y1432200D02*
X920410D01*
Y1450700D01*
X877910Y1432200D02*
Y1450700D01*
X920410D01*
X265470Y1782530D02*
Y1872530D01*
Y1782530D02*
X377610D01*
Y1872530D01*
X265470D02*
X377610D01*
D69*
X680450Y1900920D02*
G03*
X680450Y1900920I-1000J0D01*
G01*
M02*
