G04*
G04 #@! TF.GenerationSoftware,Altium Limited,Altium Designer,24.1.2 (44)*
G04*
G04 Layer_Color=128*
%FSLAX44Y44*%
%MOMM*%
G71*
G04*
G04 #@! TF.SameCoordinates,E9BD1FF1-B1AA-42C1-8D7E-3D4E88507192*
G04*
G04*
G04 #@! TF.FilePolarity,Positive*
G04*
G01*
G75*
%ADD12C,0.1270*%
D12*
X711280Y1654850D02*
X721280D01*
X716280Y1649850D02*
Y1659850D01*
X711280Y1631950D02*
X721280D01*
X716280Y1626950D02*
Y1636950D01*
X711280Y1609050D02*
X721280D01*
X716280Y1604050D02*
Y1614050D01*
X773510Y1654890D02*
X783510D01*
X778510Y1649890D02*
Y1659890D01*
X773510Y1631990D02*
X783510D01*
X778510Y1626990D02*
Y1636990D01*
X773510Y1609090D02*
X783510D01*
X778510Y1604090D02*
Y1614090D01*
X879150Y1571110D02*
X886150D01*
X882650Y1567610D02*
Y1574610D01*
X879150Y1692910D02*
X886150D01*
X882650Y1689410D02*
Y1696410D01*
X834470Y1610320D02*
X844470D01*
X839470Y1605320D02*
Y1615320D01*
X834470Y1633220D02*
X844470D01*
X839470Y1628220D02*
Y1638220D01*
X834470Y1656120D02*
X844470D01*
X839470Y1651120D02*
Y1661120D01*
X822000Y1731010D02*
X829000D01*
X825500Y1727510D02*
Y1734510D01*
X700200Y1731010D02*
X707200D01*
X703700Y1727510D02*
Y1734510D01*
X565670Y1541780D02*
X573470D01*
X569570Y1537880D02*
Y1545680D01*
X565670Y1516380D02*
X573470D01*
X569570Y1512480D02*
Y1520280D01*
X565670Y1490980D02*
X573470D01*
X569570Y1487080D02*
Y1494880D01*
X565670Y1465580D02*
X573470D01*
X569570Y1461680D02*
Y1469480D01*
X645070Y1465580D02*
X652870D01*
X648970Y1461680D02*
Y1469480D01*
X645070Y1490980D02*
X652870D01*
X648970Y1487080D02*
Y1494880D01*
X645070Y1516380D02*
X652870D01*
X648970Y1512480D02*
Y1520280D01*
X645070Y1541780D02*
X652870D01*
X648970Y1537880D02*
Y1545680D01*
X773800Y1821180D02*
X780800D01*
X777300Y1817680D02*
Y1824680D01*
X895600Y1821180D02*
X902600D01*
X899100Y1817680D02*
Y1824680D01*
X495550Y1701800D02*
X502550D01*
X499050Y1698300D02*
Y1705300D01*
X373750Y1701800D02*
X380750D01*
X377250Y1698300D02*
Y1705300D01*
X495550Y1626870D02*
X502550D01*
X499050Y1623370D02*
Y1630370D01*
X373750Y1626870D02*
X380750D01*
X377250Y1623370D02*
Y1630370D01*
X495550Y1663700D02*
X502550D01*
X499050Y1660200D02*
Y1667200D01*
X373750Y1663700D02*
X380750D01*
X377250Y1660200D02*
Y1667200D01*
X1049270Y1847850D02*
X1056270D01*
X1052770Y1844350D02*
Y1851350D01*
X927470Y1847850D02*
X934470D01*
X930970Y1844350D02*
Y1851350D01*
X1048060Y1762700D02*
X1055060D01*
X1051560Y1759200D02*
Y1766200D01*
X1048060Y1640900D02*
X1055060D01*
X1051560Y1637400D02*
Y1644400D01*
X575620Y1699140D02*
X582620D01*
X579120Y1695640D02*
Y1702640D01*
X575620Y1577340D02*
X582620D01*
X579120Y1573840D02*
Y1580840D01*
X1008690Y1762760D02*
X1015690D01*
X1012190Y1759260D02*
Y1766260D01*
X1008690Y1640960D02*
X1015690D01*
X1012190Y1637460D02*
Y1644460D01*
X970590Y1565970D02*
X977590D01*
X974090Y1562470D02*
Y1569470D01*
X970590Y1687770D02*
X977590D01*
X974090Y1684270D02*
Y1691270D01*
X670930Y1490980D02*
X677930D01*
X674430Y1487480D02*
Y1494480D01*
X792730Y1490980D02*
X799730D01*
X796230Y1487480D02*
Y1494480D01*
X669660Y1529080D02*
X676660D01*
X673160Y1525580D02*
Y1532580D01*
X791460Y1529080D02*
X798460D01*
X794960Y1525580D02*
Y1532580D01*
X791520Y1447800D02*
X798520D01*
X795020Y1444300D02*
Y1451300D01*
X669720Y1447800D02*
X676720D01*
X673220Y1444300D02*
Y1451300D01*
X792790Y1405890D02*
X799790D01*
X796290Y1402390D02*
Y1409390D01*
X670990Y1405890D02*
X677990D01*
X674490Y1402390D02*
Y1409390D01*
X928450Y1607780D02*
X938450D01*
X933450Y1602780D02*
Y1612780D01*
X928450Y1630680D02*
X938450D01*
X933450Y1625680D02*
Y1635680D01*
X928450Y1653580D02*
X938450D01*
X933450Y1648580D02*
Y1658580D01*
X618490Y1868170D02*
X628650D01*
X623570Y1863090D02*
Y1873250D01*
X666750Y1868170D02*
X676910D01*
X671830Y1863090D02*
Y1873250D01*
X666750Y1824990D02*
X676910D01*
X671830Y1819910D02*
Y1830070D01*
X666750Y1781810D02*
X676910D01*
X671830Y1776730D02*
Y1786890D01*
X618490Y1824990D02*
X628650D01*
X623570Y1819910D02*
Y1830070D01*
X618490Y1781810D02*
X628650D01*
X623570Y1776730D02*
Y1786890D01*
X693530Y1569720D02*
X702530D01*
X698030Y1565220D02*
Y1574220D01*
X718530Y1569720D02*
X727530D01*
X723030Y1565220D02*
Y1574220D01*
X743530Y1569720D02*
X752530D01*
X748030Y1565220D02*
Y1574220D01*
X446350Y1844040D02*
X455350D01*
X450850Y1839540D02*
Y1848540D01*
X471350Y1844040D02*
X480350D01*
X475850Y1839540D02*
Y1848540D01*
X496350Y1844040D02*
X505350D01*
X500850Y1839540D02*
Y1848540D01*
X634640Y1703080D02*
X653140D01*
X643890Y1693830D02*
Y1712330D01*
X634640Y1656080D02*
X653140D01*
X643890Y1646830D02*
Y1665330D01*
X634640Y1609080D02*
X653140D01*
X643890Y1599830D02*
Y1618330D01*
X855290Y1850390D02*
X864290D01*
X859790Y1845890D02*
Y1854890D01*
X829890Y1850390D02*
X838890D01*
X834390Y1845890D02*
Y1854890D01*
X855290Y1921510D02*
X864290D01*
X859790Y1917010D02*
Y1926010D01*
X829890Y1921510D02*
X838890D01*
X834390Y1917010D02*
Y1926010D01*
X939910Y1410970D02*
X948410D01*
X944160Y1406720D02*
Y1415220D01*
X849910Y1410970D02*
X858410D01*
X854160Y1406720D02*
Y1415220D01*
X849910Y1441450D02*
X858410D01*
X854160Y1437200D02*
Y1445700D01*
X939910Y1441450D02*
X948410D01*
X944160Y1437200D02*
Y1445700D01*
X349360Y1736090D02*
X356360D01*
X352860Y1732590D02*
Y1739590D01*
X324360Y1736090D02*
X331360D01*
X327860Y1732590D02*
Y1739590D01*
X537020Y1749900D02*
X545020D01*
X541020Y1745900D02*
Y1753900D01*
X537020Y1729900D02*
X545020D01*
X541020Y1725900D02*
Y1733900D01*
X740190Y1780690D02*
X748190D01*
X744190Y1776690D02*
Y1784690D01*
X740190Y1800690D02*
X748190D01*
X744190Y1796690D02*
Y1804690D01*
X843490Y1775460D02*
X851490D01*
X847490Y1771460D02*
Y1779460D01*
X893490Y1775460D02*
X901490D01*
X897490Y1771460D02*
Y1779460D01*
X870080Y1728470D02*
X878080D01*
X874080Y1724470D02*
Y1732470D01*
X890080Y1728470D02*
X898080D01*
X894080Y1724470D02*
Y1732470D01*
X882460Y1537970D02*
X890460D01*
X886460Y1533970D02*
Y1541970D01*
X862460Y1537970D02*
X870460D01*
X866460Y1533970D02*
Y1541970D01*
X859760Y1483360D02*
X867760D01*
X863760Y1479360D02*
Y1487360D01*
X879760Y1483360D02*
X887760D01*
X883760Y1479360D02*
Y1487360D01*
X783082Y1912620D02*
X790702D01*
X786892Y1908810D02*
Y1916430D01*
X682498Y1912620D02*
X690118D01*
X686308Y1908810D02*
Y1916430D01*
X732790Y1912620D02*
X740410D01*
X736600Y1908810D02*
Y1916430D01*
X445480Y1925490D02*
X454480D01*
X449980Y1920990D02*
Y1929990D01*
X470480Y1925490D02*
X479480D01*
X474980Y1920990D02*
Y1929990D01*
X495480Y1925490D02*
X504480D01*
X499980Y1920990D02*
Y1929990D01*
X277280Y1530350D02*
X285280D01*
X281280Y1526350D02*
Y1534350D01*
X357780Y1582350D02*
X362780D01*
X360280Y1579850D02*
Y1584850D01*
X346280Y1556350D02*
X354280D01*
X350280Y1552350D02*
Y1560350D01*
X390280Y1489350D02*
X398280D01*
X394280Y1485350D02*
Y1493350D01*
X320780Y1484350D02*
X325780D01*
X323280Y1481850D02*
Y1486850D01*
X471000Y1747520D02*
X481500D01*
X476250Y1742270D02*
Y1752770D01*
X446000Y1747520D02*
X456500D01*
X451250Y1742270D02*
Y1752770D01*
X1001014Y1915160D02*
X1008634D01*
X1004824Y1911350D02*
Y1918970D01*
X900430Y1915160D02*
X908050D01*
X904240Y1911350D02*
Y1918970D01*
X950722Y1915160D02*
X958342D01*
X954532Y1911350D02*
Y1918970D01*
X366610Y1827530D02*
X376610D01*
X371610Y1822530D02*
Y1832530D01*
X337610Y1779530D02*
X347610D01*
X342610Y1774530D02*
Y1784530D01*
X303610Y1827530D02*
X313610D01*
X308610Y1822530D02*
Y1832530D01*
X1050530Y1908810D02*
X1080530D01*
X1065530Y1893810D02*
Y1923810D01*
X1050530Y1410970D02*
X1080530D01*
X1065530Y1395970D02*
Y1425970D01*
X291070Y1410970D02*
X321070D01*
X306070Y1395970D02*
Y1425970D01*
X292340Y1908810D02*
X322340D01*
X307340Y1893810D02*
Y1923810D01*
X809244Y1516380D02*
X816356D01*
X812800Y1512824D02*
Y1519936D01*
X804164Y1869440D02*
X811276D01*
X807720Y1865884D02*
Y1872996D01*
X706374Y1497330D02*
X713486D01*
X709930Y1493774D02*
Y1500886D01*
X754634Y1484630D02*
X761746D01*
X758190Y1481074D02*
Y1488186D01*
X663194Y1559560D02*
X670306D01*
X666750Y1556004D02*
Y1563116D01*
X529844Y1559560D02*
X536956D01*
X533400Y1556004D02*
Y1563116D01*
X519684Y1690370D02*
X526796D01*
X523240Y1686814D02*
Y1693926D01*
X755904Y1836420D02*
X763016D01*
X759460Y1832864D02*
Y1839976D01*
X701294Y1760220D02*
X708406D01*
X704850Y1756664D02*
Y1763776D01*
X580644Y1794510D02*
X587756D01*
X584200Y1790954D02*
Y1798066D01*
M02*
