G04*
G04 #@! TF.GenerationSoftware,Altium Limited,Altium Designer,24.1.2 (44)*
G04*
G04 Layer_Color=16711935*
%FSLAX44Y44*%
%MOMM*%
G71*
G04*
G04 #@! TF.SameCoordinates,E9BD1FF1-B1AA-42C1-8D7E-3D4E88507192*
G04*
G04*
G04 #@! TF.FilePolarity,Negative*
G04*
G01*
G75*
%ADD17R,1.8032X1.8032*%
%ADD18C,1.8032*%
%ADD19R,1.2000X1.2000*%
%ADD20C,1.2000*%
%ADD21R,1.2000X1.2000*%
%ADD22R,1.3332X1.3332*%
%ADD23C,1.3332*%
G04:AMPARAMS|DCode=24|XSize=2.4892mm|YSize=4.0132mm|CornerRadius=1.2446mm|HoleSize=0mm|Usage=FLASHONLY|Rotation=270.000|XOffset=0mm|YOffset=0mm|HoleType=Round|Shape=RoundedRectangle|*
%AMROUNDEDRECTD24*
21,1,2.4892,1.5240,0,0,270.0*
21,1,0.0000,4.0132,0,0,270.0*
1,1,2.4892,-0.7620,0.0000*
1,1,2.4892,-0.7620,0.0000*
1,1,2.4892,0.7620,0.0000*
1,1,2.4892,0.7620,0.0000*
%
%ADD24ROUNDEDRECTD24*%
%ADD25R,1.4000X1.4000*%
%ADD26C,1.4000*%
%ADD27R,2.9782X2.9782*%
%ADD28C,2.9782*%
%ADD29C,1.6032*%
%ADD30R,1.6032X1.6032*%
%ADD31C,1.5532*%
%ADD32R,1.5032X1.5032*%
%ADD33C,1.5032*%
%ADD34C,1.3000*%
%ADD35R,1.3000X1.3000*%
%ADD36R,1.5032X1.5032*%
G04:AMPARAMS|DCode=37|XSize=1.778mm|YSize=2.54mm|CornerRadius=0.889mm|HoleSize=0mm|Usage=FLASHONLY|Rotation=270.000|XOffset=0mm|YOffset=0mm|HoleType=Round|Shape=RoundedRectangle|*
%AMROUNDEDRECTD37*
21,1,1.7780,0.7620,0,0,270.0*
21,1,0.0000,2.5400,0,0,270.0*
1,1,1.7780,-0.3810,0.0000*
1,1,1.7780,-0.3810,0.0000*
1,1,1.7780,0.3810,0.0000*
1,1,1.7780,0.3810,0.0000*
%
%ADD37ROUNDEDRECTD37*%
%ADD38O,1.5112X2.8192*%
%ADD39O,2.2192X1.2112*%
%ADD40O,2.8192X1.5112*%
%ADD41R,1.7782X1.7782*%
%ADD42C,1.7782*%
%ADD43O,2.4032X4.6032*%
%ADD44O,4.2032X2.2032*%
%ADD45O,2.2032X4.2032*%
%ADD46C,4.2032*%
%ADD47C,1.4732*%
D17*
X716280Y1654850D02*
D03*
X778510Y1654890D02*
D03*
X839470Y1610320D02*
D03*
X933450Y1653580D02*
D03*
D18*
X716280Y1631950D02*
D03*
Y1609050D02*
D03*
X778510Y1631990D02*
D03*
Y1609090D02*
D03*
X839470Y1633220D02*
D03*
Y1656120D02*
D03*
X933450Y1607780D02*
D03*
Y1630680D02*
D03*
D19*
X882650Y1571110D02*
D03*
X1051560Y1640900D02*
D03*
X579120Y1577340D02*
D03*
X1012190Y1640960D02*
D03*
X974090Y1687770D02*
D03*
D20*
X882650Y1692910D02*
D03*
X703700Y1731010D02*
D03*
X777300Y1821180D02*
D03*
X499050Y1701800D02*
D03*
Y1626870D02*
D03*
Y1663700D02*
D03*
X1052770Y1847850D02*
D03*
X1051560Y1762700D02*
D03*
X579120Y1699140D02*
D03*
X1012190Y1762760D02*
D03*
X974090Y1565970D02*
D03*
X674430Y1490980D02*
D03*
X673160Y1529080D02*
D03*
X795020Y1447800D02*
D03*
X796290Y1405890D02*
D03*
X352860Y1736090D02*
D03*
D21*
X825500Y1731010D02*
D03*
X899100Y1821180D02*
D03*
X377250Y1701800D02*
D03*
Y1626870D02*
D03*
Y1663700D02*
D03*
X930970Y1847850D02*
D03*
X796230Y1490980D02*
D03*
X794960Y1529080D02*
D03*
X673220Y1447800D02*
D03*
X674490Y1405890D02*
D03*
X327860Y1736090D02*
D03*
D22*
X569570Y1541780D02*
D03*
D23*
Y1516380D02*
D03*
Y1490980D02*
D03*
Y1465580D02*
D03*
X648970D02*
D03*
Y1490980D02*
D03*
Y1516380D02*
D03*
Y1541780D02*
D03*
D24*
X623570Y1868170D02*
D03*
X671830D02*
D03*
Y1824990D02*
D03*
Y1781810D02*
D03*
X623570Y1824990D02*
D03*
Y1781810D02*
D03*
D25*
X698030Y1569720D02*
D03*
X500850Y1844040D02*
D03*
X499980Y1925490D02*
D03*
D26*
X723030Y1569720D02*
D03*
X748030D02*
D03*
X450850Y1844040D02*
D03*
X475850D02*
D03*
X449980Y1925490D02*
D03*
X474980D02*
D03*
D27*
X643890Y1703080D02*
D03*
D28*
Y1656080D02*
D03*
Y1609080D02*
D03*
D29*
X859790Y1850390D02*
D03*
Y1921510D02*
D03*
D30*
X834390Y1850390D02*
D03*
Y1921510D02*
D03*
D31*
X944160Y1410970D02*
D03*
X854160D02*
D03*
Y1441450D02*
D03*
X944160D02*
D03*
D32*
X541020Y1749900D02*
D03*
X744190Y1780690D02*
D03*
D33*
X541020Y1729900D02*
D03*
X744190Y1800690D02*
D03*
X894080Y1728470D02*
D03*
X866460Y1537970D02*
D03*
X883760Y1483360D02*
D03*
D34*
X847490Y1775460D02*
D03*
D35*
X897490D02*
D03*
D36*
X874080Y1728470D02*
D03*
X886460Y1537970D02*
D03*
X863760Y1483360D02*
D03*
D37*
X786892Y1912620D02*
D03*
X686308D02*
D03*
X736600D02*
D03*
X1004824Y1915160D02*
D03*
X904240D02*
D03*
X954532D02*
D03*
D38*
X281280Y1530350D02*
D03*
X394280Y1489350D02*
D03*
D39*
X360280Y1582350D02*
D03*
X323280Y1484350D02*
D03*
D40*
X350280Y1556350D02*
D03*
D41*
X476250Y1747520D02*
D03*
D42*
X451250D02*
D03*
D43*
X371610Y1827530D02*
D03*
D44*
X342610Y1779530D02*
D03*
D45*
X308610Y1827530D02*
D03*
D46*
X1065530Y1908810D02*
D03*
Y1410970D02*
D03*
X306070D02*
D03*
X307340Y1908810D02*
D03*
D47*
X812800Y1516380D02*
D03*
X807720Y1869440D02*
D03*
X709930Y1497330D02*
D03*
X758190Y1484630D02*
D03*
X666750Y1559560D02*
D03*
X533400D02*
D03*
X523240Y1690370D02*
D03*
X759460Y1836420D02*
D03*
X704850Y1760220D02*
D03*
X584200Y1794510D02*
D03*
M02*
