G04*
G04 #@! TF.GenerationSoftware,Altium Limited,Altium Designer,24.1.2 (44)*
G04*
G04 Layer_Physical_Order=2*
G04 Layer_Color=16711680*
%FSLAX44Y44*%
%MOMM*%
G71*
G04*
G04 #@! TF.SameCoordinates,E9BD1FF1-B1AA-42C1-8D7E-3D4E88507192*
G04*
G04*
G04 #@! TF.FilePolarity,Positive*
G04*
G01*
G75*
%ADD14C,0.2540*%
%ADD19R,1.2000X1.2000*%
%ADD20C,1.2000*%
%ADD21R,1.2000X1.2000*%
%ADD25R,1.4000X1.4000*%
%ADD26C,1.4000*%
%ADD34C,1.3000*%
%ADD35R,1.3000X1.3000*%
G04:AMPARAMS|DCode=37|XSize=1.778mm|YSize=2.54mm|CornerRadius=0.889mm|HoleSize=0mm|Usage=FLASHONLY|Rotation=270.000|XOffset=0mm|YOffset=0mm|HoleType=Round|Shape=RoundedRectangle|*
%AMROUNDEDRECTD37*
21,1,1.7780,0.7620,0,0,270.0*
21,1,0.0000,2.5400,0,0,270.0*
1,1,1.7780,-0.3810,0.0000*
1,1,1.7780,-0.3810,0.0000*
1,1,1.7780,0.3810,0.0000*
1,1,1.7780,0.3810,0.0000*
%
%ADD37ROUNDEDRECTD37*%
%ADD48C,0.7620*%
%ADD49C,0.5080*%
%ADD50R,1.6000X1.6000*%
%ADD51C,1.6000*%
%ADD52R,1.1300X1.1300*%
%ADD53C,1.1300*%
G04:AMPARAMS|DCode=54|XSize=2.286mm|YSize=3.81mm|CornerRadius=1.143mm|HoleSize=0mm|Usage=FLASHONLY|Rotation=270.000|XOffset=0mm|YOffset=0mm|HoleType=Round|Shape=RoundedRectangle|*
%AMROUNDEDRECTD54*
21,1,2.2860,1.5240,0,0,270.0*
21,1,0.0000,3.8100,0,0,270.0*
1,1,2.2860,-0.7620,0.0000*
1,1,2.2860,-0.7620,0.0000*
1,1,2.2860,0.7620,0.0000*
1,1,2.2860,0.7620,0.0000*
%
%ADD54ROUNDEDRECTD54*%
%ADD55R,2.7750X2.7750*%
%ADD56C,2.7750*%
%ADD57C,1.3500*%
%ADD58R,1.3000X1.3000*%
%ADD59O,1.3080X2.6160*%
%ADD60O,2.0160X1.0080*%
%ADD61O,2.6160X1.3080*%
%ADD62R,1.5750X1.5750*%
%ADD63C,1.5750*%
%ADD64O,2.2000X4.4000*%
%ADD65O,4.0000X2.0000*%
%ADD66O,2.0000X4.0000*%
%ADD67C,4.0000*%
%ADD68C,1.2700*%
G36*
X1111250Y1943100D02*
Y1377950D01*
X1098550Y1365250D01*
X273050D01*
X260350Y1377950D01*
Y1943100D01*
X273050Y1955800D01*
X1098550D01*
X1111250Y1943100D01*
D02*
G37*
%LPC*%
G36*
X478932Y1935030D02*
X476250D01*
Y1926760D01*
X484520D01*
Y1929442D01*
X478932Y1935030D01*
D02*
G37*
G36*
X473710D02*
X471028D01*
X465440Y1929442D01*
Y1926760D01*
X473710D01*
Y1935030D01*
D02*
G37*
G36*
X484520Y1924220D02*
X476250D01*
Y1915950D01*
X478932D01*
X484520Y1921538D01*
Y1924220D01*
D02*
G37*
G36*
X473710D02*
X465440D01*
Y1921538D01*
X471028Y1915950D01*
X473710D01*
Y1924220D01*
D02*
G37*
G36*
X863742Y1931050D02*
X855838D01*
X850250Y1925462D01*
Y1917558D01*
X855838Y1911970D01*
X863742D01*
X869330Y1917558D01*
Y1925462D01*
X863742Y1931050D01*
D02*
G37*
G36*
X820420Y1939604D02*
X734060D01*
X731144Y1938396D01*
X703204Y1910456D01*
X701996Y1907540D01*
Y1855908D01*
X684222Y1838134D01*
X679450Y1840111D01*
X664210D01*
X653518Y1835682D01*
X649089Y1824990D01*
X653518Y1814298D01*
X664210Y1809869D01*
X679450D01*
X690142Y1814298D01*
X694571Y1824990D01*
X691106Y1833354D01*
X709036Y1851284D01*
X710244Y1854200D01*
Y1905832D01*
X722813Y1918401D01*
X720418Y1912620D01*
X724042Y1903872D01*
X732790Y1900248D01*
X740410D01*
X743660Y1901594D01*
X779702Y1865552D01*
X783590Y1863941D01*
X800646D01*
X804038Y1860550D01*
X811402D01*
X816610Y1865758D01*
Y1873122D01*
X811402Y1878330D01*
X804038D01*
X800646Y1874939D01*
X785868D01*
X751436Y1909370D01*
X752782Y1912620D01*
X749158Y1921368D01*
X740410Y1924992D01*
X732790D01*
X727009Y1922597D01*
X735768Y1931356D01*
X818712D01*
X824850Y1925218D01*
Y1911970D01*
X843930D01*
Y1931050D01*
X830682D01*
X823336Y1938396D01*
X820420Y1939604D01*
D02*
G37*
G36*
X1008634Y1927532D02*
X1001014D01*
X992266Y1923908D01*
X988642Y1915160D01*
X992266Y1906412D01*
X1001014Y1902788D01*
X1008634D01*
X1017382Y1906412D01*
X1021006Y1915160D01*
X1017382Y1923908D01*
X1008634Y1927532D01*
D02*
G37*
G36*
X790702Y1924992D02*
X783082D01*
X774334Y1921368D01*
X770710Y1912620D01*
X774334Y1903872D01*
X783082Y1900248D01*
X790702D01*
X799450Y1903872D01*
X803074Y1912620D01*
X799450Y1921368D01*
X790702Y1924992D01*
D02*
G37*
G36*
X690118D02*
X682498D01*
X673750Y1921368D01*
X670126Y1912620D01*
X673750Y1903872D01*
X682498Y1900248D01*
X690118D01*
X698866Y1903872D01*
X702490Y1912620D01*
X698866Y1921368D01*
X690118Y1924992D01*
D02*
G37*
G36*
X1074866Y1931350D02*
X1056194D01*
X1042990Y1918146D01*
Y1899474D01*
X1056194Y1886270D01*
X1074866D01*
X1088070Y1899474D01*
Y1918146D01*
X1074866Y1931350D01*
D02*
G37*
G36*
X316676D02*
X298004D01*
X284800Y1918146D01*
Y1899474D01*
X298004Y1886270D01*
X316676D01*
X329880Y1899474D01*
Y1918146D01*
X316676Y1931350D01*
D02*
G37*
G36*
X509520Y1935030D02*
X490440D01*
Y1915950D01*
X509520D01*
Y1918617D01*
X604043D01*
X650671Y1871989D01*
X649089Y1868170D01*
X653518Y1857478D01*
X664210Y1853049D01*
X679450D01*
X690142Y1857478D01*
X694571Y1868170D01*
X690142Y1878862D01*
X679450Y1883291D01*
X664210D01*
X660391Y1881709D01*
X611750Y1930350D01*
X606890Y1932363D01*
X509520D01*
Y1935030D01*
D02*
G37*
G36*
X453932D02*
X446028D01*
X440440Y1929442D01*
Y1921538D01*
X446028Y1915950D01*
X449800D01*
X502440Y1863310D01*
X507300Y1861297D01*
X507300Y1861297D01*
X603676D01*
X605258Y1857478D01*
X615950Y1853049D01*
X631190D01*
X641882Y1857478D01*
X646311Y1868170D01*
X641882Y1878862D01*
X631190Y1883291D01*
X615950D01*
X605258Y1878862D01*
X603676Y1875043D01*
X510147D01*
X459520Y1925670D01*
Y1929442D01*
X453932Y1935030D01*
D02*
G37*
G36*
X1056307Y1856390D02*
X1054040D01*
Y1849120D01*
X1061310D01*
Y1851387D01*
X1056307Y1856390D01*
D02*
G37*
G36*
X1051500D02*
X1049233D01*
X1044230Y1851387D01*
Y1849120D01*
X1051500D01*
Y1856390D01*
D02*
G37*
G36*
X479802Y1853580D02*
X477120D01*
Y1845310D01*
X485390D01*
Y1847992D01*
X479802Y1853580D01*
D02*
G37*
G36*
X474580D02*
X471898D01*
X466310Y1847992D01*
Y1845310D01*
X474580D01*
Y1853580D01*
D02*
G37*
G36*
X908050Y1927532D02*
X900430D01*
X891682Y1923908D01*
X888058Y1915160D01*
X891682Y1906412D01*
X900430Y1902788D01*
X908050D01*
X909980Y1903588D01*
X912816Y1900752D01*
Y1796618D01*
X900698Y1784500D01*
X888450D01*
Y1766420D01*
X900698D01*
X969504Y1697614D01*
X972420Y1696406D01*
X990222D01*
X1043020Y1643608D01*
Y1632360D01*
X1052324D01*
X1056221Y1628462D01*
Y1606288D01*
X924822Y1474888D01*
X888073D01*
X892800Y1479615D01*
Y1482090D01*
X883760D01*
X874720D01*
Y1479615D01*
X879447Y1474888D01*
X872800D01*
Y1492400D01*
X862496D01*
X809228Y1545668D01*
X805340Y1547278D01*
X655843D01*
Y1561793D01*
X705740Y1611690D01*
Y1604684D01*
X711914Y1598510D01*
X720646D01*
X726820Y1604684D01*
Y1604926D01*
X732750D01*
X735666Y1606134D01*
X757398Y1627866D01*
X767970D01*
Y1627624D01*
X774144Y1621450D01*
X782876D01*
X789050Y1627624D01*
Y1627866D01*
X829918D01*
X835104Y1622680D01*
X843836D01*
X850010Y1628854D01*
Y1637586D01*
X843836Y1643760D01*
X835104D01*
X828930Y1637586D01*
Y1636114D01*
X789050D01*
Y1636356D01*
X782876Y1642530D01*
X774144D01*
X767970Y1636356D01*
Y1636114D01*
X755690D01*
X752774Y1634906D01*
X731042Y1613174D01*
X726820D01*
Y1613416D01*
X720646Y1619590D01*
X713640D01*
X715460Y1621410D01*
X720646D01*
X726820Y1627584D01*
Y1636316D01*
X720646Y1642490D01*
X711914D01*
X708247Y1638823D01*
X700187D01*
X690133Y1648877D01*
Y1707723D01*
X704880Y1722470D01*
X707237D01*
X712240Y1727473D01*
Y1734547D01*
X711148Y1735639D01*
Y1753946D01*
X713740Y1756538D01*
Y1763902D01*
X708532Y1769110D01*
X701168D01*
X695960Y1763902D01*
Y1756538D01*
X697402Y1755096D01*
Y1736789D01*
X695160Y1734547D01*
Y1732190D01*
X678400Y1715430D01*
X676387Y1710570D01*
Y1646030D01*
X678400Y1641170D01*
X692076Y1627494D01*
X696936Y1625481D01*
X697230Y1625603D01*
X698500Y1625077D01*
X699687D01*
X644110Y1569500D01*
X642097Y1564640D01*
Y1546489D01*
X640780Y1545172D01*
Y1538388D01*
X645578Y1533590D01*
X652362D01*
X655054Y1536281D01*
X668284D01*
X665207Y1533204D01*
X639248D01*
X623884Y1548568D01*
Y1630242D01*
X635199Y1641557D01*
X637091Y1639665D01*
X650689D01*
X660305Y1649281D01*
Y1662879D01*
X650689Y1672495D01*
X637091D01*
X627475Y1662879D01*
Y1649281D01*
X629367Y1647389D01*
X616844Y1634866D01*
X615636Y1631950D01*
Y1546860D01*
X616844Y1543944D01*
X627584Y1533204D01*
X582270D01*
X579354Y1531996D01*
X571928Y1524570D01*
X566178D01*
X563133Y1521526D01*
Y1533590D01*
X577760D01*
Y1549970D01*
X573694D01*
Y1566082D01*
X576412Y1568800D01*
X587660D01*
Y1585880D01*
X584618D01*
Y1670967D01*
X627475Y1713823D01*
Y1686665D01*
X660305D01*
Y1719495D01*
X633147D01*
X662254Y1748602D01*
X677141D01*
X681029Y1750212D01*
X735150Y1804334D01*
Y1796945D01*
X740445Y1791650D01*
X747934D01*
X750101Y1793817D01*
X763133D01*
X778222Y1778728D01*
Y1750435D01*
X780235Y1745575D01*
X898386Y1627423D01*
X903246Y1625410D01*
X923814D01*
X929084Y1620140D01*
X937816D01*
X943990Y1626314D01*
Y1635046D01*
X937816Y1641220D01*
X929084D01*
X927021Y1639157D01*
X906093D01*
X822780Y1722470D01*
X834040D01*
Y1739550D01*
X816960D01*
Y1728290D01*
X791968Y1753282D01*
Y1781575D01*
X789955Y1786435D01*
X770840Y1805550D01*
X765980Y1807563D01*
X750101D01*
X747934Y1809730D01*
X740546D01*
X758346Y1827530D01*
X763142D01*
X768350Y1832738D01*
Y1840102D01*
X764936Y1843517D01*
X824850D01*
Y1840850D01*
X843930D01*
Y1859930D01*
X824850D01*
Y1857263D01*
X740410D01*
X735550Y1855250D01*
X677506Y1797206D01*
X677392Y1796931D01*
X664210D01*
X660391Y1795349D01*
X643670Y1812070D01*
X640087Y1813554D01*
X641882Y1814298D01*
X646311Y1824990D01*
X641882Y1835682D01*
X631190Y1840111D01*
X615950D01*
X605258Y1835682D01*
X600829Y1824990D01*
X605258Y1814298D01*
X605776Y1814083D01*
X540527D01*
X510390Y1844220D01*
Y1853580D01*
X501030D01*
X486660Y1867950D01*
X481800Y1869963D01*
X407170D01*
X402310Y1867950D01*
X402310Y1867950D01*
X382348Y1847988D01*
X381973Y1848893D01*
X371610Y1853186D01*
X361247Y1848893D01*
X356954Y1838530D01*
Y1816530D01*
X361247Y1806167D01*
X371610Y1801874D01*
X381973Y1806167D01*
X386266Y1816530D01*
Y1832465D01*
X410017Y1856217D01*
X478953D01*
X491310Y1843860D01*
Y1834500D01*
X500670D01*
X532820Y1802350D01*
X532820Y1802350D01*
X534243Y1801760D01*
X537680Y1800337D01*
X537680Y1800337D01*
X577454D01*
X575310Y1798192D01*
Y1795340D01*
X551400Y1771430D01*
X549387Y1766570D01*
Y1758940D01*
X537812D01*
X527266Y1769486D01*
X524350Y1770694D01*
X470300D01*
X467384Y1769486D01*
X455699Y1757800D01*
X455564Y1757935D01*
X446936D01*
X440835Y1751834D01*
Y1743206D01*
X446936Y1737105D01*
X455564D01*
X461665Y1743206D01*
Y1751834D01*
X461530Y1751969D01*
X465835Y1756273D01*
Y1748790D01*
X474980D01*
Y1757935D01*
X467497D01*
X472008Y1762446D01*
X522642D01*
X531980Y1753108D01*
Y1740860D01*
X549387D01*
Y1734318D01*
X544765Y1738940D01*
X537276D01*
X531980Y1733645D01*
Y1726692D01*
X511212Y1705924D01*
X507004D01*
X502587Y1710340D01*
X495513D01*
X490510Y1705337D01*
Y1698263D01*
X494926Y1693846D01*
Y1671653D01*
X490510Y1667237D01*
Y1660163D01*
X495513Y1655160D01*
X502587D01*
X507590Y1660163D01*
Y1667237D01*
X503174Y1671653D01*
Y1693846D01*
X507004Y1697676D01*
X512920D01*
X515836Y1698884D01*
X537812Y1720860D01*
X544765D01*
X549387Y1725482D01*
Y1479045D01*
X551400Y1474185D01*
X561380Y1464205D01*
Y1462188D01*
X566178Y1457390D01*
X572962D01*
X577760Y1462188D01*
Y1468972D01*
X572962Y1473770D01*
X571255D01*
X563133Y1481892D01*
Y1485834D01*
X566178Y1482790D01*
X572962D01*
X577029Y1486856D01*
X612445D01*
X615361Y1488064D01*
X623614Y1496316D01*
X642724D01*
X640780Y1494372D01*
Y1487588D01*
X645578Y1482790D01*
X649384D01*
X666672Y1465502D01*
X670560Y1463891D01*
X927100D01*
X930988Y1465502D01*
X1065608Y1600122D01*
X1067218Y1604010D01*
Y1630740D01*
X1065608Y1634628D01*
X1060100Y1640136D01*
Y1649440D01*
X1048852D01*
X994846Y1703446D01*
X991930Y1704654D01*
X974128D01*
X906530Y1772252D01*
Y1778668D01*
X919856Y1791994D01*
X921064Y1794910D01*
Y1902460D01*
X919856Y1905376D01*
X917390Y1907842D01*
X920422Y1915160D01*
X916798Y1923908D01*
X908050Y1927532D01*
D02*
G37*
G36*
X1061310Y1846580D02*
X1054040D01*
Y1839310D01*
X1056307D01*
X1061310Y1844313D01*
Y1846580D01*
D02*
G37*
G36*
X1051500D02*
X1044230D01*
Y1844313D01*
X1049233Y1839310D01*
X1051500D01*
Y1846580D01*
D02*
G37*
G36*
X939510Y1856390D02*
X922430D01*
Y1839310D01*
X939510D01*
Y1856390D01*
D02*
G37*
G36*
X485390Y1842770D02*
X477120D01*
Y1834500D01*
X479802D01*
X485390Y1840088D01*
Y1842770D01*
D02*
G37*
G36*
X474580D02*
X466310D01*
Y1840088D01*
X471898Y1834500D01*
X474580D01*
Y1842770D01*
D02*
G37*
G36*
X454802Y1853580D02*
X446898D01*
X441310Y1847992D01*
Y1840088D01*
X446898Y1834500D01*
X454802D01*
X460390Y1840088D01*
Y1847992D01*
X454802Y1853580D01*
D02*
G37*
G36*
X309880Y1850577D02*
Y1828800D01*
X322183D01*
Y1837530D01*
X318208Y1847128D01*
X309880Y1850577D01*
D02*
G37*
G36*
X307340D02*
X299012Y1847128D01*
X295037Y1837530D01*
Y1828800D01*
X307340D01*
Y1850577D01*
D02*
G37*
G36*
X780837Y1829720D02*
X778570D01*
Y1822450D01*
X785840D01*
Y1824717D01*
X780837Y1829720D01*
D02*
G37*
G36*
X776030D02*
X773763D01*
X768760Y1824717D01*
Y1822450D01*
X776030D01*
Y1829720D01*
D02*
G37*
G36*
X863742Y1859930D02*
X855838D01*
X850250Y1854342D01*
Y1846438D01*
X855838Y1840850D01*
X859610D01*
X881950Y1818510D01*
X881950Y1818510D01*
X883373Y1817920D01*
X886810Y1816497D01*
X886810Y1816497D01*
X890560D01*
Y1812640D01*
X907640D01*
Y1829720D01*
X898173D01*
X896910Y1830243D01*
X889657D01*
X869330Y1850570D01*
Y1854342D01*
X863742Y1859930D01*
D02*
G37*
G36*
X785840Y1819910D02*
X778570D01*
Y1812640D01*
X780837D01*
X785840Y1817643D01*
Y1819910D01*
D02*
G37*
G36*
X776030D02*
X768760D01*
Y1817643D01*
X773763Y1812640D01*
X776030D01*
Y1819910D01*
D02*
G37*
G36*
X322183Y1826260D02*
X309880D01*
Y1804483D01*
X318208Y1807932D01*
X322183Y1817530D01*
Y1826260D01*
D02*
G37*
G36*
X307340D02*
X295037D01*
Y1817530D01*
X299012Y1807932D01*
X307340Y1804483D01*
Y1826260D01*
D02*
G37*
G36*
X753230Y1789730D02*
X745460D01*
Y1781960D01*
X753230D01*
Y1789730D01*
D02*
G37*
G36*
X742920D02*
X735150D01*
Y1781960D01*
X742920D01*
Y1789730D01*
D02*
G37*
G36*
X352610Y1793103D02*
X343880D01*
Y1780800D01*
X365657D01*
X362208Y1789128D01*
X352610Y1793103D01*
D02*
G37*
G36*
X341340D02*
X332610D01*
X323012Y1789128D01*
X319563Y1780800D01*
X341340D01*
Y1793103D01*
D02*
G37*
G36*
X753230Y1779420D02*
X745460D01*
Y1771650D01*
X753230D01*
Y1779420D01*
D02*
G37*
G36*
X742920D02*
X735150D01*
Y1771650D01*
X742920D01*
Y1779420D01*
D02*
G37*
G36*
X365657Y1778260D02*
X343880D01*
Y1765957D01*
X352610D01*
X362208Y1769932D01*
X365657Y1778260D01*
D02*
G37*
G36*
X341340D02*
X319563D01*
X323012Y1769932D01*
X332610Y1765957D01*
X341340D01*
Y1778260D01*
D02*
G37*
G36*
X1055097Y1771240D02*
X1048023D01*
X1043020Y1766237D01*
Y1759163D01*
X1048023Y1754160D01*
X1055097D01*
X1060100Y1759163D01*
Y1766237D01*
X1055097Y1771240D01*
D02*
G37*
G36*
X486665Y1757935D02*
X477520D01*
Y1748790D01*
X486665D01*
Y1757935D01*
D02*
G37*
G36*
X336400Y1744630D02*
X329130D01*
Y1737360D01*
X336400D01*
Y1744630D01*
D02*
G37*
G36*
X326590D02*
X319320D01*
Y1737360D01*
X326590D01*
Y1744630D01*
D02*
G37*
G36*
X486665Y1746250D02*
X477520D01*
Y1737105D01*
X486665D01*
Y1746250D01*
D02*
G37*
G36*
X474980D02*
X465835D01*
Y1737105D01*
X474980D01*
Y1746250D01*
D02*
G37*
G36*
X897824Y1737510D02*
X895350D01*
Y1729740D01*
X903120D01*
Y1732215D01*
X897824Y1737510D01*
D02*
G37*
G36*
X892810D02*
X890335D01*
X885040Y1732215D01*
Y1729740D01*
X892810D01*
Y1737510D01*
D02*
G37*
G36*
X336400Y1734820D02*
X329130D01*
Y1727550D01*
X336400D01*
Y1734820D01*
D02*
G37*
G36*
X326590D02*
X319320D01*
Y1727550D01*
X326590D01*
Y1734820D01*
D02*
G37*
G36*
X903120Y1727200D02*
X895350D01*
Y1719430D01*
X897824D01*
X903120Y1724725D01*
Y1727200D01*
D02*
G37*
G36*
X892810D02*
X885040D01*
Y1724725D01*
X890335Y1719430D01*
X892810D01*
Y1727200D01*
D02*
G37*
G36*
X883120Y1737510D02*
X865040D01*
Y1719430D01*
X883120D01*
Y1737510D01*
D02*
G37*
G36*
X385790Y1710340D02*
X378520D01*
Y1703070D01*
X385790D01*
Y1710340D01*
D02*
G37*
G36*
X375980D02*
X368710D01*
Y1703070D01*
X375980D01*
Y1710340D01*
D02*
G37*
G36*
X385790Y1700530D02*
X378520D01*
Y1693260D01*
X385790D01*
Y1700530D01*
D02*
G37*
G36*
X375980D02*
X368710D01*
Y1693260D01*
X375980D01*
Y1700530D01*
D02*
G37*
G36*
X886187Y1701450D02*
X879113D01*
X874110Y1696447D01*
Y1689373D01*
X879113Y1684370D01*
X886187D01*
X891190Y1689373D01*
Y1696447D01*
X886187Y1701450D01*
D02*
G37*
G36*
X982630Y1696310D02*
X965550D01*
Y1679230D01*
X982630D01*
Y1696310D01*
D02*
G37*
G36*
X843836Y1666660D02*
X835104D01*
X828930Y1660486D01*
Y1651754D01*
X835104Y1645580D01*
X843836D01*
X850010Y1651754D01*
Y1660486D01*
X843836Y1666660D01*
D02*
G37*
G36*
X789050Y1665430D02*
X767970D01*
Y1644350D01*
X789050D01*
Y1665430D01*
D02*
G37*
G36*
X726820Y1665390D02*
X705740D01*
Y1644310D01*
X726820D01*
Y1665390D01*
D02*
G37*
G36*
X943990Y1664120D02*
X922910D01*
Y1643040D01*
X943990D01*
Y1664120D01*
D02*
G37*
G36*
X1020730Y1649500D02*
X1003650D01*
Y1632420D01*
X1020730D01*
Y1649500D01*
D02*
G37*
G36*
X385790Y1635410D02*
X378520D01*
Y1628140D01*
X385790D01*
Y1635410D01*
D02*
G37*
G36*
X375980D02*
X368710D01*
Y1628140D01*
X375980D01*
Y1635410D01*
D02*
G37*
G36*
X526922Y1699260D02*
X519558D01*
X514350Y1694052D01*
Y1686688D01*
X519116Y1681922D01*
Y1652768D01*
X501758Y1635410D01*
X495513D01*
X490510Y1630407D01*
Y1623333D01*
X495513Y1618330D01*
X502587D01*
X507590Y1623333D01*
Y1629578D01*
X526156Y1648144D01*
X527364Y1651060D01*
Y1681922D01*
X532130Y1686688D01*
Y1694052D01*
X526922Y1699260D01*
D02*
G37*
G36*
X385790Y1625600D02*
X378520D01*
Y1618330D01*
X385790D01*
Y1625600D01*
D02*
G37*
G36*
X375980D02*
X368710D01*
Y1618330D01*
X375980D01*
Y1625600D01*
D02*
G37*
G36*
X851235Y1784500D02*
X843745D01*
X838450Y1779205D01*
Y1771716D01*
X843366Y1766799D01*
Y1708166D01*
X844574Y1705250D01*
X875070Y1674754D01*
X877986Y1673546D01*
X941902D01*
X950301Y1665147D01*
Y1630463D01*
X937987Y1618149D01*
X937816Y1618320D01*
X929084D01*
X922910Y1612146D01*
Y1603414D01*
X929084Y1597240D01*
X929326D01*
Y1586668D01*
X917892Y1575234D01*
X891190D01*
Y1579650D01*
X886774D01*
Y1590040D01*
X885566Y1592956D01*
X865286Y1613236D01*
X862370Y1614444D01*
X850010D01*
Y1620860D01*
X828930D01*
Y1599780D01*
X850010D01*
Y1606196D01*
X860662D01*
X878526Y1588332D01*
Y1579650D01*
X874110D01*
Y1570346D01*
X862572Y1558808D01*
X860962Y1554920D01*
Y1545256D01*
X857420Y1541714D01*
Y1534225D01*
X862716Y1528930D01*
X870204D01*
X875500Y1534225D01*
Y1541714D01*
X871959Y1545256D01*
Y1552643D01*
X881886Y1562570D01*
X891190D01*
Y1566986D01*
X919600D01*
X922516Y1568194D01*
X936366Y1582044D01*
X937574Y1584960D01*
Y1597240D01*
X937816D01*
X943990Y1603414D01*
Y1612146D01*
X943819Y1612317D01*
X957341Y1625839D01*
X958549Y1628755D01*
Y1666855D01*
X957341Y1669771D01*
X946526Y1680586D01*
X943610Y1681794D01*
X879694D01*
X851614Y1709874D01*
Y1766799D01*
X856530Y1771716D01*
Y1779205D01*
X851235Y1784500D01*
D02*
G37*
G36*
X782876Y1619630D02*
X774144D01*
X767970Y1613456D01*
Y1604724D01*
X774144Y1598550D01*
X782876D01*
X789050Y1604724D01*
Y1613456D01*
X782876Y1619630D01*
D02*
G37*
G36*
X650689Y1625495D02*
X637091D01*
X627475Y1615879D01*
Y1602281D01*
X637091Y1592665D01*
X650689D01*
X660305Y1602281D01*
Y1615879D01*
X650689Y1625495D01*
D02*
G37*
G36*
X365320Y1590555D02*
X355240D01*
X349439Y1588152D01*
X347035Y1582350D01*
X349439Y1576548D01*
X355240Y1574146D01*
X365320D01*
X371121Y1576548D01*
X373525Y1582350D01*
X371121Y1588152D01*
X365320Y1590555D01*
D02*
G37*
G36*
X751982Y1579260D02*
X744078D01*
X738490Y1573672D01*
Y1565768D01*
X739638Y1564620D01*
X738052Y1563034D01*
X729836D01*
X732570Y1565768D01*
Y1573672D01*
X726982Y1579260D01*
X719078D01*
X713490Y1573672D01*
Y1565768D01*
X716225Y1563034D01*
X707570D01*
Y1579260D01*
X688490D01*
Y1563034D01*
X675640D01*
Y1563242D01*
X670432Y1568450D01*
X663068D01*
X657860Y1563242D01*
Y1555878D01*
X663068Y1550670D01*
X670432D01*
X674548Y1554786D01*
X739760D01*
X742676Y1555994D01*
X746862Y1560180D01*
X751982D01*
X757570Y1565768D01*
Y1573672D01*
X751982Y1579260D01*
D02*
G37*
G36*
X356397Y1744630D02*
X349323D01*
X344320Y1739627D01*
Y1732553D01*
X348736Y1728136D01*
Y1688090D01*
X349944Y1685174D01*
X368710Y1666408D01*
Y1655160D01*
X385790D01*
Y1659576D01*
X427552D01*
X524510Y1562618D01*
Y1555878D01*
X529718Y1550670D01*
X537082D01*
X542290Y1555878D01*
Y1563242D01*
X537082Y1568450D01*
X530342D01*
X432176Y1666616D01*
X429260Y1667824D01*
X385790D01*
Y1672240D01*
X374542D01*
X356984Y1689798D01*
Y1728136D01*
X361400Y1732553D01*
Y1739627D01*
X356397Y1744630D01*
D02*
G37*
G36*
X977627Y1574510D02*
X970553D01*
X965550Y1569507D01*
Y1563262D01*
X944382Y1542094D01*
X895500D01*
Y1547010D01*
X877420D01*
Y1528930D01*
X895500D01*
Y1533846D01*
X946090D01*
X949006Y1535054D01*
X971382Y1557430D01*
X977627D01*
X982630Y1562433D01*
Y1569507D01*
X977627Y1574510D01*
D02*
G37*
G36*
X282550Y1546192D02*
Y1531620D01*
X291108D01*
Y1536890D01*
X288230Y1543840D01*
X282550Y1546192D01*
D02*
G37*
G36*
X280010D02*
X274331Y1543840D01*
X271452Y1536890D01*
Y1531620D01*
X280010D01*
Y1546192D01*
D02*
G37*
G36*
X291108Y1529080D02*
X282550D01*
Y1514508D01*
X288230Y1516861D01*
X291108Y1523810D01*
Y1529080D01*
D02*
G37*
G36*
X280010D02*
X271452D01*
Y1523810D01*
X274331Y1516861D01*
X280010Y1514508D01*
Y1529080D01*
D02*
G37*
G36*
X887505Y1492400D02*
X885030D01*
Y1484630D01*
X892800D01*
Y1487104D01*
X887505Y1492400D01*
D02*
G37*
G36*
X882490D02*
X880015D01*
X874720Y1487104D01*
Y1484630D01*
X882490D01*
Y1492400D01*
D02*
G37*
G36*
X328320Y1492554D02*
X318240D01*
X312439Y1490152D01*
X310035Y1484350D01*
X312439Y1478548D01*
X318240Y1476145D01*
X328320D01*
X334122Y1478548D01*
X336525Y1484350D01*
X334122Y1490152D01*
X328320Y1492554D01*
D02*
G37*
G36*
X652362Y1473770D02*
X645578D01*
X640780Y1468972D01*
Y1462188D01*
X645578Y1457390D01*
X652362D01*
X657160Y1462188D01*
Y1468972D01*
X652362Y1473770D01*
D02*
G37*
G36*
X798557Y1456340D02*
X791483D01*
X786480Y1451337D01*
Y1444263D01*
X791483Y1439260D01*
X798557D01*
X803560Y1444263D01*
Y1451337D01*
X798557Y1456340D01*
D02*
G37*
G36*
X948008Y1450740D02*
X940312D01*
X934870Y1445298D01*
Y1437602D01*
X940312Y1432160D01*
X948008D01*
X953450Y1437602D01*
Y1445298D01*
X948008Y1450740D01*
D02*
G37*
G36*
X858008D02*
X850312D01*
X844870Y1445298D01*
Y1437602D01*
X850312Y1432160D01*
X858008D01*
X863450Y1437602D01*
Y1445298D01*
X858008Y1450740D01*
D02*
G37*
G36*
X958342Y1927532D02*
X950722D01*
X941974Y1923908D01*
X938350Y1915160D01*
X941974Y1906412D01*
X950408Y1902918D01*
Y1820418D01*
X951616Y1817502D01*
X1003650Y1765468D01*
Y1759223D01*
X1008653Y1754220D01*
X1015727D01*
X1015856Y1754349D01*
X1016916Y1753910D01*
X1019832Y1755118D01*
X1020720Y1757262D01*
X1023882D01*
X1068922Y1712222D01*
Y1523738D01*
X953450Y1408266D01*
Y1414818D01*
X948008Y1420260D01*
X940312D01*
X934870Y1414818D01*
Y1407122D01*
X940312Y1401680D01*
X946864D01*
X941332Y1396149D01*
X732648D01*
X681760Y1447036D01*
Y1456340D01*
X664680D01*
Y1453298D01*
X456938D01*
X417908Y1492328D01*
X414020Y1493938D01*
X404108D01*
Y1495890D01*
X401230Y1502840D01*
X394280Y1505718D01*
X387331Y1502840D01*
X384452Y1495890D01*
Y1494848D01*
X383638D01*
X355779Y1522708D01*
Y1546522D01*
X356820D01*
X363769Y1549400D01*
X366648Y1556350D01*
X363769Y1563300D01*
X356820Y1566178D01*
X343740D01*
X336791Y1563300D01*
X333912Y1556350D01*
X336791Y1549400D01*
X343740Y1546522D01*
X344781D01*
Y1520430D01*
X346392Y1516542D01*
X377472Y1485462D01*
X381360Y1483851D01*
X384452D01*
Y1482810D01*
X387331Y1475860D01*
X394280Y1472982D01*
X401230Y1475860D01*
X404108Y1482810D01*
Y1482941D01*
X411742D01*
X450772Y1443912D01*
X454660Y1442301D01*
X664680D01*
Y1439260D01*
X673984D01*
X726482Y1386762D01*
X730370Y1385152D01*
X943610D01*
X947498Y1386762D01*
X1078308Y1517572D01*
X1079919Y1521460D01*
Y1714500D01*
X1078308Y1718388D01*
X1030048Y1766648D01*
X1026160Y1768259D01*
X1018769D01*
X1015727Y1771300D01*
X1009482D01*
X958656Y1822126D01*
Y1902918D01*
X967090Y1906412D01*
X970714Y1915160D01*
X967090Y1923908D01*
X958342Y1927532D01*
D02*
G37*
G36*
X683030Y1414430D02*
X675760D01*
Y1407160D01*
X683030D01*
Y1414430D01*
D02*
G37*
G36*
X673220D02*
X665950D01*
Y1407160D01*
X673220D01*
Y1414430D01*
D02*
G37*
G36*
X858008Y1420260D02*
X850312D01*
X844870Y1414818D01*
Y1407122D01*
X850312Y1401680D01*
X858008D01*
X863450Y1407122D01*
Y1414818D01*
X858008Y1420260D01*
D02*
G37*
G36*
X799827Y1414430D02*
X792753D01*
X787750Y1409427D01*
Y1402353D01*
X792753Y1397350D01*
X799827D01*
X804830Y1402353D01*
Y1409427D01*
X799827Y1414430D01*
D02*
G37*
G36*
X683030Y1404620D02*
X675760D01*
Y1397350D01*
X683030D01*
Y1404620D01*
D02*
G37*
G36*
X673220D02*
X665950D01*
Y1397350D01*
X673220D01*
Y1404620D01*
D02*
G37*
G36*
X1074866Y1433510D02*
X1056194D01*
X1042990Y1420306D01*
Y1401634D01*
X1056194Y1388430D01*
X1074866D01*
X1088070Y1401634D01*
Y1420306D01*
X1074866Y1433510D01*
D02*
G37*
G36*
X315406D02*
X296734D01*
X283530Y1420306D01*
Y1401634D01*
X296734Y1388430D01*
X315406D01*
X328610Y1401634D01*
Y1420306D01*
X315406Y1433510D01*
D02*
G37*
%LPD*%
G36*
X786420Y1530350D02*
X794960D01*
X803500D01*
Y1535844D01*
X814074Y1525270D01*
X809118D01*
X804352Y1520504D01*
X656429D01*
X652362Y1524570D01*
X645578D01*
X640780Y1519772D01*
Y1512988D01*
X645578Y1508190D01*
X652362D01*
X656429Y1512256D01*
X804352D01*
X809118Y1507490D01*
X816482D01*
X821690Y1512698D01*
Y1517654D01*
X854720Y1484624D01*
Y1474888D01*
X672838D01*
X657160Y1490566D01*
Y1494372D01*
X655216Y1496316D01*
X663262D01*
X665890Y1493688D01*
Y1487443D01*
X670893Y1482440D01*
X677967D01*
X682970Y1487443D01*
Y1494517D01*
X677967Y1499520D01*
X671722D01*
X667886Y1503356D01*
X664970Y1504564D01*
X621905D01*
X618989Y1503356D01*
X610737Y1495104D01*
X577029D01*
X572962Y1499170D01*
X566178D01*
X563133Y1496126D01*
Y1511234D01*
X566178Y1508190D01*
X572962D01*
X577760Y1512988D01*
Y1518738D01*
X583978Y1524956D01*
X665207D01*
X669623Y1520540D01*
X676697D01*
X681700Y1525543D01*
Y1532617D01*
X678036Y1536281D01*
X786420D01*
Y1530350D01*
D02*
G37*
%LPC*%
G36*
X803500Y1527810D02*
X796230D01*
Y1520540D01*
X803500D01*
Y1527810D01*
D02*
G37*
G36*
X793690D02*
X786420D01*
Y1520540D01*
X793690D01*
Y1527810D01*
D02*
G37*
G36*
X804770Y1499520D02*
X787690D01*
Y1482440D01*
X804770D01*
Y1499520D01*
D02*
G37*
G36*
X713612Y1506220D02*
X706248D01*
X701040Y1501012D01*
Y1493648D01*
X706248Y1488440D01*
X710239D01*
X716965Y1481714D01*
X719881Y1480506D01*
X749742D01*
X754508Y1475740D01*
X761872D01*
X767080Y1480948D01*
Y1488312D01*
X761872Y1493520D01*
X754508D01*
X749742Y1488754D01*
X721589D01*
X717758Y1492585D01*
X718820Y1493648D01*
Y1501012D01*
X713612Y1506220D01*
D02*
G37*
%LPD*%
D14*
X972420Y1700530D02*
X991930D01*
X897490Y1775460D02*
X972420Y1700530D01*
X897490Y1775460D02*
X916940Y1794910D01*
X991930Y1700530D02*
X1051560Y1640900D01*
X648970Y1516380D02*
X812800D01*
X394280Y1489350D02*
X395190Y1488440D01*
X877986Y1677670D02*
X943610D01*
X847490Y1708166D02*
Y1775460D01*
Y1708166D02*
X877986Y1677670D01*
X862370Y1610320D02*
X882650Y1590040D01*
X839470Y1610320D02*
X862370D01*
X882650Y1571110D02*
Y1590040D01*
X716280Y1609050D02*
X732750D01*
X755690Y1631990D01*
X778510D02*
X838240D01*
X755690D02*
X778510D01*
X838240D02*
X839470Y1633220D01*
X882650Y1571110D02*
X919600D01*
X886460Y1537970D02*
X946090D01*
X974090Y1565970D01*
X919600Y1571110D02*
X933450Y1584960D01*
Y1607780D01*
X954425Y1628755D01*
X943610Y1677670D02*
X954425Y1666855D01*
Y1628755D02*
Y1666855D01*
X1012190Y1762760D02*
X1016916Y1758034D01*
X954532Y1820418D02*
X1012190Y1762760D01*
X954532Y1820418D02*
Y1915160D01*
X709930Y1494581D02*
X719881Y1484630D01*
X758190D01*
X709930Y1494581D02*
Y1497330D01*
X619760Y1546860D02*
X637540Y1529080D01*
X619760Y1546860D02*
Y1631950D01*
X643890Y1656080D01*
X637540Y1529080D02*
X673160D01*
X582270D02*
X637540D01*
X667400Y1558910D02*
X739760D01*
X748030Y1567180D02*
Y1569720D01*
X739760Y1558910D02*
X748030Y1567180D01*
X666750Y1559560D02*
X667400Y1558910D01*
X377250Y1663700D02*
X429260D01*
X533400Y1559560D01*
X569570Y1541780D02*
Y1567790D01*
X499050Y1626870D02*
X523240Y1651060D01*
Y1690370D01*
X512920Y1701800D02*
X541020Y1729900D01*
X499050Y1701800D02*
X512920D01*
X706120Y1907540D02*
X734060Y1935480D01*
X820420D02*
X834390Y1921510D01*
X734060Y1935480D02*
X820420D01*
X676910Y1824990D02*
X706120Y1854200D01*
X671830Y1824990D02*
X676910D01*
X706120Y1854200D02*
Y1907540D01*
X621905Y1500440D02*
X664970D01*
X674430Y1490980D01*
X569570D02*
X612445D01*
X621905Y1500440D01*
X569570Y1516380D02*
X582270Y1529080D01*
X569570Y1567790D02*
X579120Y1577340D01*
X499050Y1663700D02*
Y1701800D01*
X470300Y1766570D02*
X524350D01*
X541020Y1749900D01*
X451250Y1747520D02*
X470300Y1766570D01*
X664210Y1868170D02*
X671830D01*
X904240Y1915160D02*
X916940Y1902460D01*
Y1794910D02*
Y1902460D01*
X352860Y1688090D02*
X377250Y1663700D01*
X352860Y1688090D02*
Y1736090D01*
D19*
X882650Y1571110D02*
D03*
X1051560Y1640900D02*
D03*
X579120Y1577340D02*
D03*
X1012190Y1640960D02*
D03*
X974090Y1687770D02*
D03*
D20*
X882650Y1692910D02*
D03*
X703700Y1731010D02*
D03*
X777300Y1821180D02*
D03*
X499050Y1701800D02*
D03*
Y1626870D02*
D03*
Y1663700D02*
D03*
X1052770Y1847850D02*
D03*
X1051560Y1762700D02*
D03*
X579120Y1699140D02*
D03*
X1012190Y1762760D02*
D03*
X974090Y1565970D02*
D03*
X674430Y1490980D02*
D03*
X673160Y1529080D02*
D03*
X795020Y1447800D02*
D03*
X796290Y1405890D02*
D03*
X352860Y1736090D02*
D03*
D21*
X825500Y1731010D02*
D03*
X899100Y1821180D02*
D03*
X377250Y1701800D02*
D03*
Y1626870D02*
D03*
Y1663700D02*
D03*
X930970Y1847850D02*
D03*
X796230Y1490980D02*
D03*
X794960Y1529080D02*
D03*
X673220Y1447800D02*
D03*
X674490Y1405890D02*
D03*
X327860Y1736090D02*
D03*
D25*
X698030Y1569720D02*
D03*
X500850Y1844040D02*
D03*
X834390Y1850390D02*
D03*
Y1921510D02*
D03*
X499980Y1925490D02*
D03*
D26*
X723030Y1569720D02*
D03*
X748030D02*
D03*
X450850Y1844040D02*
D03*
X475850D02*
D03*
X859790Y1850390D02*
D03*
Y1921510D02*
D03*
X449980Y1925490D02*
D03*
X474980D02*
D03*
D34*
X541020Y1729900D02*
D03*
X744190Y1800690D02*
D03*
X847490Y1775460D02*
D03*
X894080Y1728470D02*
D03*
X866460Y1537970D02*
D03*
X883760Y1483360D02*
D03*
D35*
X897490Y1775460D02*
D03*
X874080Y1728470D02*
D03*
X886460Y1537970D02*
D03*
X863760Y1483360D02*
D03*
D37*
X786892Y1912620D02*
D03*
X686308D02*
D03*
X736600D02*
D03*
X1004824Y1915160D02*
D03*
X904240D02*
D03*
X954532D02*
D03*
D48*
X671830Y1781810D02*
X675326D01*
X664210D02*
X671830D01*
X371610Y1827530D02*
X407170Y1863090D01*
X481800D02*
X500850Y1844040D01*
X407170Y1863090D02*
X481800D01*
X500850Y1844040D02*
X537680Y1807210D01*
X744190Y1800690D02*
X765980D01*
X785095Y1750435D02*
Y1781575D01*
X765980Y1800690D02*
X785095Y1781575D01*
Y1750435D02*
X903246Y1632283D01*
X931847D01*
X704275Y1731585D02*
Y1759645D01*
X683260Y1646030D02*
Y1710570D01*
X703700Y1731010D01*
X740410Y1850390D02*
X834390D01*
X675326Y1781810D02*
X682366Y1788850D01*
Y1792346D01*
X638810Y1807210D02*
X664210Y1781810D01*
X682366Y1792346D02*
X740410Y1850390D01*
X648970Y1564640D02*
X716280Y1631950D01*
X648970Y1541780D02*
Y1564640D01*
X698500Y1631950D02*
X716280D01*
X683260Y1646030D02*
X696936Y1632354D01*
X931847Y1632283D02*
X933450Y1630680D01*
X556260Y1479045D02*
Y1766570D01*
X704275Y1759645D02*
X704850Y1760220D01*
X556260Y1766570D02*
X584200Y1794510D01*
X556260Y1479045D02*
X569570Y1465735D01*
X507300Y1868170D02*
X623570D01*
X449980Y1925490D02*
X507300Y1868170D01*
X606890Y1925490D02*
X664210Y1868170D01*
X499980Y1925490D02*
X606890D01*
X537680Y1807210D02*
X638810D01*
X569570Y1465580D02*
Y1465735D01*
X886810Y1823370D02*
X896910D01*
X899100Y1821180D01*
X859790Y1850390D02*
X886810Y1823370D01*
D49*
X805340Y1541780D02*
X863760Y1483360D01*
X648970Y1541780D02*
X805340D01*
X414020Y1488440D02*
X454660Y1447800D01*
X395190Y1488440D02*
X414020D01*
X350280Y1520430D02*
X381360Y1489350D01*
X394280D01*
X350280Y1520430D02*
Y1556350D01*
X703700Y1731010D02*
X704275Y1731585D01*
X866460Y1554920D02*
X882650Y1571110D01*
X866460Y1537970D02*
Y1554920D01*
X927100Y1469390D02*
X1061720Y1604010D01*
X1051560Y1640900D02*
X1061720Y1630740D01*
Y1604010D02*
Y1630740D01*
X1026160Y1762760D02*
X1074420Y1714500D01*
X1012190Y1762760D02*
X1026160D01*
X1074420Y1521460D02*
Y1714500D01*
X943610Y1390650D02*
X1074420Y1521460D01*
X740410Y1912620D02*
X783590Y1869440D01*
X807720D01*
X736600Y1912620D02*
X740410D01*
X670560Y1469390D02*
X927100D01*
X648970Y1490980D02*
X670560Y1469390D01*
X730370Y1390650D02*
X943610D01*
X673220Y1447800D02*
X730370Y1390650D01*
X579120Y1673244D02*
X659976Y1754100D01*
X677141D02*
X759460Y1836420D01*
X659976Y1754100D02*
X677141D01*
X579120Y1577340D02*
Y1673244D01*
X454660Y1447800D02*
X673220D01*
D50*
X716280Y1654850D02*
D03*
X778510Y1654890D02*
D03*
X839470Y1610320D02*
D03*
X933450Y1653580D02*
D03*
D51*
X716280Y1631950D02*
D03*
Y1609050D02*
D03*
X778510Y1631990D02*
D03*
Y1609090D02*
D03*
X839470Y1633220D02*
D03*
Y1656120D02*
D03*
X933450Y1607780D02*
D03*
Y1630680D02*
D03*
D52*
X569570Y1541780D02*
D03*
D53*
Y1516380D02*
D03*
Y1490980D02*
D03*
Y1465580D02*
D03*
X648970D02*
D03*
Y1490980D02*
D03*
Y1516380D02*
D03*
Y1541780D02*
D03*
D54*
X623570Y1868170D02*
D03*
X671830D02*
D03*
Y1824990D02*
D03*
Y1781810D02*
D03*
X623570Y1824990D02*
D03*
Y1781810D02*
D03*
D55*
X643890Y1703080D02*
D03*
D56*
Y1656080D02*
D03*
Y1609080D02*
D03*
D57*
X944160Y1410970D02*
D03*
X854160D02*
D03*
Y1441450D02*
D03*
X944160D02*
D03*
D58*
X541020Y1749900D02*
D03*
X744190Y1780690D02*
D03*
D59*
X281280Y1530350D02*
D03*
X394280Y1489350D02*
D03*
D60*
X360280Y1582350D02*
D03*
X323280Y1484350D02*
D03*
D61*
X350280Y1556350D02*
D03*
D62*
X476250Y1747520D02*
D03*
D63*
X451250D02*
D03*
D64*
X371610Y1827530D02*
D03*
D65*
X342610Y1779530D02*
D03*
D66*
X308610Y1827530D02*
D03*
D67*
X1065530Y1908810D02*
D03*
Y1410970D02*
D03*
X306070D02*
D03*
X307340Y1908810D02*
D03*
D68*
X812800Y1516380D02*
D03*
X807720Y1869440D02*
D03*
X709930Y1497330D02*
D03*
X758190Y1484630D02*
D03*
X666750Y1559560D02*
D03*
X533400D02*
D03*
X523240Y1690370D02*
D03*
X759460Y1836420D02*
D03*
X704850Y1760220D02*
D03*
X584200Y1794510D02*
D03*
M02*
