G04*
G04 #@! TF.GenerationSoftware,Altium Limited,Altium Designer,24.1.2 (44)*
G04*
G04 Layer_Color=0*
%FSLAX44Y44*%
%MOMM*%
G71*
G04*
G04 #@! TF.SameCoordinates,E9BD1FF1-B1AA-42C1-8D7E-3D4E88507192*
G04*
G04*
G04 #@! TF.FilePolarity,Positive*
G04*
G01*
G75*
%ADD15C,0.1000*%
D15*
X882650Y1627010D02*
Y1637010D01*
X877650Y1632010D02*
X887650D01*
X759600Y1731010D02*
X769600D01*
X764600Y1726010D02*
Y1736010D01*
X838200Y1816180D02*
Y1826180D01*
X833200Y1821180D02*
X843200D01*
X438150Y1696800D02*
Y1706800D01*
X433150Y1701800D02*
X443150D01*
X438150Y1621870D02*
Y1631870D01*
X433150Y1626870D02*
X443150D01*
X438150Y1658700D02*
Y1668700D01*
X433150Y1663700D02*
X443150D01*
X991870Y1842850D02*
Y1852850D01*
X986870Y1847850D02*
X996870D01*
X1046560Y1701800D02*
X1056560D01*
X1051560Y1696800D02*
Y1706800D01*
X574120Y1638240D02*
X584120D01*
X579120Y1633240D02*
Y1643240D01*
X1007190Y1701860D02*
X1017190D01*
X1012190Y1696860D02*
Y1706860D01*
X969090Y1626870D02*
X979090D01*
X974090Y1621870D02*
Y1631870D01*
X735330Y1485980D02*
Y1495980D01*
X730330Y1490980D02*
X740330D01*
X734060Y1524080D02*
Y1534080D01*
X729060Y1529080D02*
X739060D01*
X734120Y1442800D02*
Y1452800D01*
X729120Y1447800D02*
X739120D01*
X735390Y1400890D02*
Y1410890D01*
X730390Y1405890D02*
X740390D01*
X718030Y1574970D02*
X728030D01*
X723030Y1569970D02*
Y1579970D01*
X475850Y1833790D02*
Y1843790D01*
X470850Y1838790D02*
X480850D01*
X340360Y1731090D02*
Y1741090D01*
X335360Y1736090D02*
X345360D01*
X872490Y1770460D02*
Y1780460D01*
X867490Y1775460D02*
X877490D01*
X736600Y2021920D02*
Y2031920D01*
X731600Y2026920D02*
X741600D01*
X474980Y1915240D02*
Y1925240D01*
X469980Y1920240D02*
X479980D01*
X954532Y2024460D02*
Y2034460D01*
X949532Y2029460D02*
X959532D01*
M02*
