G04*
G04 #@! TF.GenerationSoftware,Altium Limited,Altium Designer,24.1.2 (44)*
G04*
G04 Layer_Color=255*
%FSLAX44Y44*%
%MOMM*%
G71*
G04*
G04 #@! TF.SameCoordinates,E9BD1FF1-B1AA-42C1-8D7E-3D4E88507192*
G04*
G04*
G04 #@! TF.FilePolarity,Positive*
G04*
G01*
G75*
%ADD19R,1.2000X1.2000*%
%ADD20C,1.2000*%
%ADD21R,1.2000X1.2000*%
%ADD25R,1.4000X1.4000*%
%ADD26C,1.4000*%
%ADD34C,1.3000*%
%ADD35R,1.3000X1.3000*%
G04:AMPARAMS|DCode=37|XSize=1.778mm|YSize=2.54mm|CornerRadius=0.889mm|HoleSize=0mm|Usage=FLASHONLY|Rotation=270.000|XOffset=0mm|YOffset=0mm|HoleType=Round|Shape=RoundedRectangle|*
%AMROUNDEDRECTD37*
21,1,1.7780,0.7620,0,0,270.0*
21,1,0.0000,2.5400,0,0,270.0*
1,1,1.7780,-0.3810,0.0000*
1,1,1.7780,-0.3810,0.0000*
1,1,1.7780,0.3810,0.0000*
1,1,1.7780,0.3810,0.0000*
%
%ADD37ROUNDEDRECTD37*%
%ADD50R,1.6000X1.6000*%
%ADD51C,1.6000*%
%ADD52R,1.1300X1.1300*%
%ADD53C,1.1300*%
G04:AMPARAMS|DCode=54|XSize=2.286mm|YSize=3.81mm|CornerRadius=1.143mm|HoleSize=0mm|Usage=FLASHONLY|Rotation=270.000|XOffset=0mm|YOffset=0mm|HoleType=Round|Shape=RoundedRectangle|*
%AMROUNDEDRECTD54*
21,1,2.2860,1.5240,0,0,270.0*
21,1,0.0000,3.8100,0,0,270.0*
1,1,2.2860,-0.7620,0.0000*
1,1,2.2860,-0.7620,0.0000*
1,1,2.2860,0.7620,0.0000*
1,1,2.2860,0.7620,0.0000*
%
%ADD54ROUNDEDRECTD54*%
%ADD55R,2.7750X2.7750*%
%ADD56C,2.7750*%
%ADD57C,1.3500*%
%ADD58R,1.3000X1.3000*%
%ADD59O,1.3080X2.6160*%
%ADD60O,2.0160X1.0080*%
%ADD61O,2.6160X1.3080*%
%ADD62R,1.5750X1.5750*%
%ADD63C,1.5750*%
%ADD64O,2.2000X4.4000*%
%ADD65O,4.0000X2.0000*%
%ADD66O,2.0000X4.0000*%
%ADD67C,4.0000*%
D19*
X882650Y1571110D02*
D03*
X1051560Y1640900D02*
D03*
X579120Y1577340D02*
D03*
X1012190Y1640960D02*
D03*
X974090Y1687770D02*
D03*
D20*
X882650Y1692910D02*
D03*
X703700Y1731010D02*
D03*
X777300Y1821180D02*
D03*
X499050Y1701800D02*
D03*
Y1626870D02*
D03*
Y1663700D02*
D03*
X1052770Y1847850D02*
D03*
X1051560Y1762700D02*
D03*
X579120Y1699140D02*
D03*
X1012190Y1762760D02*
D03*
X974090Y1565970D02*
D03*
X674430Y1490980D02*
D03*
X673160Y1529080D02*
D03*
X795020Y1447800D02*
D03*
X796290Y1405890D02*
D03*
X352860Y1736090D02*
D03*
D21*
X825500Y1731010D02*
D03*
X899100Y1821180D02*
D03*
X377250Y1701800D02*
D03*
Y1626870D02*
D03*
Y1663700D02*
D03*
X930970Y1847850D02*
D03*
X796230Y1490980D02*
D03*
X794960Y1529080D02*
D03*
X673220Y1447800D02*
D03*
X674490Y1405890D02*
D03*
X327860Y1736090D02*
D03*
D25*
X698030Y1569720D02*
D03*
X500850Y1844040D02*
D03*
X834390Y1850390D02*
D03*
Y1921510D02*
D03*
X499980Y1925490D02*
D03*
D26*
X723030Y1569720D02*
D03*
X748030D02*
D03*
X450850Y1844040D02*
D03*
X475850D02*
D03*
X859790Y1850390D02*
D03*
Y1921510D02*
D03*
X449980Y1925490D02*
D03*
X474980D02*
D03*
D34*
X541020Y1729900D02*
D03*
X744190Y1800690D02*
D03*
X847490Y1775460D02*
D03*
X894080Y1728470D02*
D03*
X866460Y1537970D02*
D03*
X883760Y1483360D02*
D03*
D35*
X897490Y1775460D02*
D03*
X874080Y1728470D02*
D03*
X886460Y1537970D02*
D03*
X863760Y1483360D02*
D03*
D37*
X786892Y1912620D02*
D03*
X686308D02*
D03*
X736600D02*
D03*
X1004824Y1915160D02*
D03*
X904240D02*
D03*
X954532D02*
D03*
D50*
X716280Y1654850D02*
D03*
X778510Y1654890D02*
D03*
X839470Y1610320D02*
D03*
X933450Y1653580D02*
D03*
D51*
X716280Y1631950D02*
D03*
Y1609050D02*
D03*
X778510Y1631990D02*
D03*
Y1609090D02*
D03*
X839470Y1633220D02*
D03*
Y1656120D02*
D03*
X933450Y1607780D02*
D03*
Y1630680D02*
D03*
D52*
X569570Y1541780D02*
D03*
D53*
Y1516380D02*
D03*
Y1490980D02*
D03*
Y1465580D02*
D03*
X648970D02*
D03*
Y1490980D02*
D03*
Y1516380D02*
D03*
Y1541780D02*
D03*
D54*
X623570Y1868170D02*
D03*
X671830D02*
D03*
Y1824990D02*
D03*
Y1781810D02*
D03*
X623570Y1824990D02*
D03*
Y1781810D02*
D03*
D55*
X643890Y1703080D02*
D03*
D56*
Y1656080D02*
D03*
Y1609080D02*
D03*
D57*
X944160Y1410970D02*
D03*
X854160D02*
D03*
Y1441450D02*
D03*
X944160D02*
D03*
D58*
X541020Y1749900D02*
D03*
X744190Y1780690D02*
D03*
D59*
X281280Y1530350D02*
D03*
X394280Y1489350D02*
D03*
D60*
X360280Y1582350D02*
D03*
X323280Y1484350D02*
D03*
D61*
X350280Y1556350D02*
D03*
D62*
X476250Y1747520D02*
D03*
D63*
X451250D02*
D03*
D64*
X371610Y1827530D02*
D03*
D65*
X342610Y1779530D02*
D03*
D66*
X308610Y1827530D02*
D03*
D67*
X1065530Y1908810D02*
D03*
Y1410970D02*
D03*
X306070D02*
D03*
X307340Y1908810D02*
D03*
M02*
