M48
;Layer_Color=9474304
;FILE_FORMAT=4:4
METRIC,LZ
;TYPE=PLATED
T02F00S00C0.7000
T03F00S00C0.7112
T05F00S00C0.7800
T06F00S00C0.8000
T08F00S00C0.8500
T09F00S00C0.9000
T10F00S00C1.0000
T13F00S00C1.0500
T14F00S00C1.8500
T15F00S00C3.0000
%
T02
X0079629Y0140589
X0079502Y014478
X0079623Y0149098
X0079496Y0152908
X0088265Y0157111
X0097409Y0156597
X0067316Y0152908
X0067443Y0149098
X0067322Y014478
X0067449Y0140589
X0057912Y0157734
X0037725Y0162687
Y016637
Y017018
X0035286Y0173609
X0032786
X0049905Y017018
Y016637
Y0162687
X0057912Y0169914
X007037Y0173101
X007773Y0182118
X008991
X0093097Y0184785
X0105277
X0105156Y017627
X0101219Y0176276
X0097409Y0168777
X0101219Y0164096
X0105156Y016409
X0088265Y0169291
X008255Y0173101
T03
X008128Y0151638
X0075819Y0148463
X0070993Y0149733
X0066675Y0155956
X005334
X0052324Y0169037
X005842Y0179451
X0070485Y0176022
X0075946Y0183642
X0080772Y0186944
T05
X0056957Y0146558
Y0149098
Y0151638
Y0154178
X0064897
Y0151638
Y0149098
Y0146558
T06
X0086376Y0148336
X0088376
X0088646Y0153797
X0086646
X0074419Y0178069
Y0180069
X0054102Y017499
Y017299
X0087408Y0172847
X0089408
X0089749Y0177546
X0084749
T08
X0085416Y0141097
Y0144145
X0094416
Y0141097
T09
X0069803Y0156972
X0072303
X0074803
X0050085Y0184404
X0047585
X0045085
X0044998Y0192549
X0047498
X0049998
X0083439Y0192151
X0085979
Y0185039
X0083439
T10
X0071628Y0160905
Y0163195
Y0165485
X0077851Y0165489
Y0163199
Y0160909
X0083947Y0161032
Y0163322
Y0165612
X0093345Y0165358
Y0163068
Y0160778
T13
X0045125Y0174752
X0047625
T14
X0064389Y0160908
Y0165608
Y0170308
T15
X0106553Y0141097
X0030607
X0030734Y0190881
X0106553
M30
