M48
;Layer_Color=9474304
;FILE_FORMAT=4:4
METRIC,LZ
;TYPE=PLATED
T04F00S00C0.7620
T11F00S00C1.0000
T12F00S00C1.0160
%
G90
G05
T04
G00X00682498Y0191262
M15
G01X00690118
M16
G00X0073279Y0191262
M15
G01X0074041
M16
G00X00783082Y0191262
M15
G01X00790702
M16
G00X0090043Y0191516
M15
G01X0090805
M16
G00X00950722Y0191516
M15
G01X00958342
M16
G00X01001014Y0191516
M15
G01X01008634
M16
T11
G00X0033161Y0177953
M15
G01X0035361
M16
G00X0037161Y0184053
M15
G01Y0181453
M16
G00X0030861Y0183853
M15
G01Y0181653
M16
T12
G00X0063119Y0178181
M15
G01X0061595
M16
G00X0063119Y0182499
M15
G01X0061595
M16
G00X0063119Y0186817
M15
G01X0061595
M16
G00X0067945Y0186817
M15
G01X0066421
M16
G00X0067945Y0182499
M15
G01X0066421
M16
G00X0067945Y0178181
M15
G01X0066421
M16
M17
M30
